<svg width="310" height="60" viewBox="0 0 310 60" fill="none" xmlns="http://www.w3.org/2000/svg">
<path d="M32.8967 14.2483C29.5105 13.959 26.1243 13.6329 22.733 13.391C19.6991 13.1754 16.6602 13.0491 13.6213 12.8966C13.2178 12.8756 12.8603 12.8493 12.5334 12.5232C8.51388 8.49954 4.47901 4.48644 0.576935 0.289249C2.19088 -0.115743 3.64139 0.0157475 5.08679 0.0367861C13.274 0.168277 21.4408 0.625865 29.582 1.52C30.675 1.56208 50.4816 3.53444 65.9367 9.97224C68.3525 11.082 70.6713 12.3759 72.6325 14.2483C76.0647 17.5251 76.0749 21.0859 72.6223 24.3205C69.4251 27.3185 65.477 28.8912 61.4983 30.3849C61.1306 30.5216 60.7986 30.3691 60.4513 30.2429C59.2306 29.7958 57.9997 29.3698 56.6667 28.8964C57.6065 28.4704 58.4952 28.0917 59.3634 27.6657C60.3441 27.1818 61.294 26.64 62.0193 25.7774C62.9488 24.6729 62.9642 23.5842 62.0499 22.4639C61.0182 21.2016 59.6188 20.4863 58.1887 19.8551C53.8423 17.9458 49.2507 16.9413 44.6336 16.0629C41.0431 15.3791 34.7201 14.4324 32.8967 14.2483Z" fill="#97CC6D"/>
<path d="M66.0899 41.2722C65.3902 42.1979 64.5219 42.9342 63.577 43.5549C62.198 44.47 60.768 45.2327 59.2919 45.8954C57.2132 45.2485 55.1396 44.8014 53.1936 44.4543C53.3928 44.2702 53.5818 44.0703 53.7657 43.8599C55.1038 42.3136 54.9302 41.0881 53.1885 40.0467C51.4775 39.0158 49.5469 38.6318 47.6316 38.2584C47.3507 38.2058 46.9779 38.1111 46.3905 38.0428C42.0033 37.5168 37.6109 37.2223 33.193 37.1802C32.861 37.1802 32.6567 37.0382 32.4524 36.812C28.6167 32.5938 24.5256 28.6438 20.4652 24.4624C21.6604 24.2888 22.7483 24.515 23.8259 24.5939C32.4115 25.225 37.0746 25.8352 42.4936 26.824C49.3631 27.9706 56.1202 29.5274 62.3564 32.8568C63.7762 33.6142 65.0939 34.5399 66.095 35.8653C67.4536 37.6536 67.4485 39.4787 66.095 41.2722H66.0899Z" fill="#97CC6D"/>
<path d="M54.2763 52.4909C51.554 52.1648 48.8165 52.0123 46.0738 51.986C45.8695 51.986 45.7418 51.9019 45.6141 51.7598C43.234 49.1405 40.6956 46.6896 38.1726 44.0913C38.9132 43.9808 39.5873 44.1281 40.2564 44.1702C42.0593 44.2964 45.9154 44.6278 46.0636 44.6383C47.9635 44.8487 51.4979 45.5061 51.8452 45.5693C56.1099 46.2793 60.3082 47.2313 64.1796 49.2983C65.0581 49.7664 65.8753 50.345 66.4984 51.1655C67.3411 52.2805 67.3411 53.4114 66.4984 54.5264C66.0642 55.0997 65.528 55.552 64.9406 55.9413C62.3562 57.6559 59.4501 58.529 56.5133 59.3022C55.8851 59.4652 55.2212 59.5336 54.6185 59.765C53.7349 60.1069 53.1782 59.765 52.7032 58.9655C53.7809 58.7236 54.8381 58.4659 55.8494 58.0451C56.9577 57.5875 58.0405 57.0721 58.8577 56.1253C59.6902 55.1681 59.5829 54.4054 58.5001 53.7585C57.3152 52.8433 54.644 52.5488 54.2916 52.4857L54.2763 52.4909Z" fill="#97CC6D"/>
<path d="M90.6465 49.7087C89.5024 49.7087 88.2409 49.6666 86.8568 49.5824C85.4727 49.4983 84.1243 49.3615 82.8219 49.1774C81.5195 48.9934 80.3601 48.8145 79.3488 48.6462L80.5695 42.4977C81.7442 42.5976 82.9496 42.6976 84.1907 42.7975C85.4318 42.8974 86.6218 42.9711 87.7608 43.0237C88.8997 43.0763 89.8804 43.0973 90.6976 43.0973C92.1634 43.0973 93.3483 43.0237 94.2421 42.8711C95.141 42.7186 95.8407 42.3662 96.3464 41.814C96.852 41.2617 97.2504 40.3781 97.5466 39.1684C97.613 38.8317 97.659 38.5109 97.6947 38.2111C97.7254 37.9113 97.7458 37.6431 97.7458 37.4064C97.7458 36.4649 97.4547 35.8285 96.8673 35.4919C96.28 35.1553 95.284 34.9869 93.8846 34.9869H88.1132L89.436 28.5386H95.2074C96.1523 28.5386 96.9542 28.444 97.6028 28.2599C98.2565 28.0758 98.7928 27.7287 99.2167 27.229C99.6407 26.7241 99.9675 25.9877 100.197 25.0147C100.294 24.7149 100.361 24.394 100.391 24.0574C100.422 23.7208 100.443 23.4 100.443 23.1002C100.443 22.3954 100.254 21.8852 99.8807 21.5644C99.5028 21.2435 98.9001 21.0437 98.0727 20.9595C97.2402 20.8753 96.1421 20.8333 94.7682 20.8333C93.8233 20.8333 92.7712 20.8648 91.6118 20.9332C90.4524 21.0016 89.3032 21.0857 88.1643 21.1857C87.0202 21.2856 85.9936 21.4066 85.0845 21.5381L86.3562 15.2896C87.3369 15.0897 88.4452 14.9057 89.6812 14.7373C90.9223 14.569 92.1583 14.4428 93.3994 14.3587C94.6405 14.2745 95.7794 14.2324 96.8214 14.2324C99.8552 14.2324 102.291 14.5112 104.135 15.0634C105.979 15.6157 107.307 16.4257 108.124 17.4829C108.941 18.5401 109.345 19.8602 109.345 21.4381C109.345 22.1429 109.294 22.8424 109.197 23.5315C109.1 24.2205 108.967 24.8359 108.803 25.3723C108.247 27.2553 107.312 28.6701 105.989 29.6274C104.666 30.5846 103.16 31.2158 101.464 31.5156V31.7155C102.996 32.0836 104.171 32.6885 104.988 33.53C105.8 34.3716 106.209 35.697 106.209 37.5116C106.209 37.9481 106.178 38.4162 106.112 38.9212C106.045 39.4261 105.964 39.9626 105.867 40.5359C105.606 41.9454 105.198 43.213 104.646 44.3386C104.089 45.4641 103.267 46.4214 102.174 47.2103C101.081 47.9993 99.6049 48.6147 97.7458 49.0512C95.8867 49.4878 93.522 49.7087 90.6516 49.7087H90.6465Z" fill="#97CC6D"/>
<path d="M124.156 49.7089C121.255 49.7089 118.89 49.4669 117.062 48.9778C115.233 48.4939 113.89 47.6366 113.027 46.4111C112.164 45.1856 111.73 43.4972 111.73 41.346C111.73 40.1363 111.837 38.7583 112.046 37.2172C112.261 35.6709 112.578 33.9247 113.002 31.9786C113.655 28.9912 114.299 26.456 114.932 24.3732C115.571 22.2904 116.286 20.5863 117.082 19.2608C117.879 17.9354 118.87 16.9098 120.04 16.1892C121.214 15.4686 122.665 14.9637 124.396 14.6797C126.123 14.3957 128.242 14.2537 130.755 14.2537C131.766 14.2537 132.834 14.2852 133.957 14.3536C135.081 14.422 136.159 14.5219 137.185 14.6534C138.212 14.7901 139.085 14.9374 139.8 15.1057L138.477 21.3016C137.4 21.2016 136.44 21.1175 135.592 21.0491C134.744 20.9807 134.019 20.9334 133.416 20.8966C132.813 20.865 132.297 20.844 131.873 20.844C130.341 20.844 129.07 20.9018 128.058 21.0228C127.047 21.1385 126.214 21.391 125.566 21.7802C124.912 22.1642 124.366 22.7532 123.926 23.5422C123.487 24.3311 123.089 25.4146 122.726 26.7926C122.369 28.1707 121.991 29.9011 121.602 31.9839C121.245 33.6985 120.949 35.1765 120.724 36.4178C120.494 37.659 120.382 38.6689 120.382 39.4421C120.382 40.515 120.612 41.3145 121.066 41.8352C121.521 42.3559 122.246 42.703 123.242 42.8661C124.238 43.0344 125.581 43.1185 127.277 43.1185C128.319 43.1185 129.504 43.0765 130.821 42.9923C132.144 42.9082 133.309 42.7977 134.32 42.6662L132.951 49.0146C132.231 49.1513 131.368 49.2776 130.357 49.3933C129.345 49.509 128.303 49.5932 127.226 49.6458C126.148 49.6983 125.121 49.7194 124.141 49.7194L124.156 49.7089Z" fill="#97CC6D"/>
<path d="M153.56 49.7085C150.363 49.7085 147.768 49.4298 145.781 48.8775C143.789 48.3252 142.349 47.3733 141.45 46.032C140.551 44.6908 140.107 42.8079 140.107 40.3885C140.107 39.2471 140.214 37.9638 140.424 36.5331C140.633 35.1078 140.939 33.5194 141.328 31.7732C141.915 28.954 142.528 26.5241 143.161 24.4938C143.8 22.4636 144.561 20.7753 145.46 19.4288C146.353 18.0876 147.416 17.0357 148.641 16.2783C149.862 15.5209 151.364 14.9949 153.141 14.6899C154.918 14.3901 157.013 14.2375 159.428 14.2375C160.669 14.2375 162.003 14.2901 163.438 14.3901C164.873 14.49 166.293 14.6162 167.692 14.7688C169.097 14.9213 170.348 15.0949 171.461 15.3L170.384 20.6385C169.373 20.507 168.31 20.3808 167.202 20.2598C166.094 20.1441 165.052 20.0494 164.071 19.9811C163.09 19.9127 162.278 19.8811 161.625 19.8811C159.699 19.8811 158.08 19.9232 156.757 20.0074C155.434 20.0915 154.336 20.3282 153.458 20.7122C152.579 21.0961 151.834 21.722 151.231 22.5741C150.628 23.4314 150.097 24.6148 149.643 26.1243C149.183 27.6338 148.713 29.5852 148.223 31.9678C147.865 33.614 147.584 35.0657 147.39 36.328C147.196 37.5903 147.094 38.6686 147.094 39.5785C147.094 40.8566 147.324 41.8296 147.778 42.5028C148.233 43.1761 148.984 43.6284 150.031 43.8651C151.073 44.1018 152.441 44.2175 154.142 44.2175C154.632 44.2175 155.194 44.2017 155.828 44.1649C156.466 44.1333 157.099 44.0807 157.738 44.0123C158.376 43.944 158.902 43.9124 159.326 43.9124L161.134 35.0973H154.919L156.042 29.8061H168.663L164.75 48.6987C163.642 48.8985 162.411 49.0774 161.058 49.2299C159.704 49.3824 158.381 49.4981 157.094 49.5823C155.807 49.6665 154.622 49.7085 153.55 49.7085H153.56Z" fill="#231F20"/>
<path d="M172.881 49.3036L180.072 14.6426H195.926C198.372 14.6426 200.257 14.9213 201.575 15.4736C202.897 16.0259 203.827 16.8148 204.363 17.8404C204.899 18.8661 205.17 20.1021 205.17 21.5432C205.17 21.9798 205.145 22.4426 205.099 22.9265C205.048 23.4157 204.986 23.9258 204.905 24.4623C204.823 24.9988 204.7 25.5563 204.537 26.1244C204.276 27.4025 203.96 28.5491 203.582 29.5747C203.209 30.6003 202.765 31.4892 202.259 32.2466C201.753 33.004 201.125 33.6509 200.374 34.1874C199.624 34.7239 198.709 35.1604 197.637 35.497L200.277 49.3036H193.086L191.079 36.3544H182.565L179.873 49.3036H172.876H172.881ZM183.647 30.9632H190.742C192.08 30.9632 193.147 30.8633 193.944 30.6634C194.741 30.4636 195.379 30.1585 195.854 29.7588C196.324 29.3538 196.687 28.812 196.932 28.123C197.177 27.434 197.397 26.603 197.591 25.63C197.718 25.0619 197.821 24.5412 197.882 24.0678C197.948 23.5997 197.979 23.179 197.979 22.8108C197.979 22.2059 197.841 21.7115 197.565 21.3223C197.289 20.9384 196.799 20.6491 196.099 20.465C195.4 20.2809 194.429 20.1862 193.188 20.1862H185.9L183.647 30.9685V30.9632Z" fill="#231F20"/>
<path d="M220.922 49.7086C217.495 49.7086 214.823 49.4825 212.898 49.0302C210.972 48.5778 209.614 47.7678 208.812 46.6107C208.01 45.4536 207.612 43.8494 207.612 41.7982C207.612 40.5569 207.75 39.1105 208.025 37.4642C208.301 35.8179 208.654 33.9192 209.078 31.7733C209.665 28.8857 210.211 26.419 210.717 24.3677C211.223 22.3217 211.836 20.6334 212.551 19.3027C213.266 17.9773 214.205 16.9411 215.365 16.2048C216.524 15.4684 218.016 14.953 219.839 14.669C221.667 14.3849 223.93 14.2429 226.637 14.2429C230.064 14.2429 232.73 14.4691 234.635 14.9214C236.545 15.3737 237.894 16.1785 238.696 17.3408C239.492 18.498 239.896 20.1179 239.896 22.2007C239.896 23.4788 239.773 24.92 239.528 26.5347C239.283 28.1494 238.931 30.0271 238.476 32.1783C237.858 35.1026 237.271 37.5852 236.714 39.6364C236.157 41.6877 235.524 43.3655 234.804 44.6752C234.084 45.9848 233.154 47.0105 232.015 47.7468C230.871 48.4884 229.415 48.9986 227.638 49.2826C225.861 49.5666 223.618 49.7086 220.912 49.7086H220.922ZM221.264 44.0651C222.73 44.0651 223.94 44.0125 224.885 43.9125C225.83 43.8126 226.622 43.5759 227.26 43.2077C227.898 42.8396 228.425 42.2189 228.848 41.3458C229.272 40.4727 229.681 39.2788 230.069 37.7693C230.462 36.2598 230.902 34.3295 231.392 31.9732C231.847 29.9587 232.184 28.2441 232.393 26.8345C232.608 25.4249 232.71 24.2678 232.71 23.3579C232.71 22.2481 232.495 21.4539 232.071 20.9647C231.647 20.4808 230.963 20.1758 230.018 20.0601C229.073 19.9444 227.817 19.8865 226.249 19.8865C224.783 19.8865 223.567 19.9391 222.602 20.039C221.642 20.139 220.84 20.3757 220.207 20.7438C219.568 21.112 219.042 21.7326 218.618 22.6057C218.194 23.4788 217.786 24.6728 217.392 26.1823C216.999 27.6918 216.575 29.6274 216.121 31.9784C215.83 33.3564 215.574 34.5924 215.365 35.6812C215.15 36.7752 214.987 37.7114 214.875 38.5004C214.762 39.2893 214.706 40.0046 214.706 40.641C214.706 41.714 214.926 42.4977 215.365 42.9816C215.804 43.4707 216.499 43.7705 217.444 43.8862C218.388 44.0019 219.66 44.0598 221.259 44.0598L221.264 44.0651Z" fill="#231F20"/>
<path d="M256.684 49.7089C253.583 49.7089 251.137 49.4722 249.344 49.0041C247.552 48.536 246.259 47.726 245.478 46.5847C244.696 45.4434 244.303 43.8813 244.303 41.8984C244.303 40.8885 244.4 39.7051 244.594 38.3481C244.788 36.9859 245.069 35.4869 245.427 33.8406L249.339 14.6482H256.336L252.031 35.5079C251.801 36.7176 251.617 37.7485 251.469 38.6058C251.321 39.4632 251.249 40.1942 251.249 40.7991C251.249 41.6722 251.428 42.3349 251.786 42.7872C252.143 43.2396 252.746 43.5499 253.594 43.7182C254.441 43.8865 255.58 43.9707 257.021 43.9707C258.619 43.9707 259.881 43.8707 260.81 43.6656C261.74 43.4657 262.475 43.0713 263.012 42.4822C263.548 41.8931 263.992 41.041 264.335 39.9155C264.677 38.7899 265.044 37.3225 265.438 35.5079L269.692 14.6482H276.689L272.777 33.8406C272.256 36.3915 271.751 38.5953 271.26 40.4414C270.77 42.2876 270.193 43.8076 269.524 45.0015C268.855 46.1955 267.976 47.137 266.883 47.8207C265.79 48.5097 264.426 48.9989 262.797 49.2829C261.168 49.5669 259.13 49.7089 256.684 49.7089Z" fill="#231F20"/>
<path d="M277.721 49.3036L284.913 14.6426H300.179C302.589 14.6426 304.469 14.9213 305.807 15.4736C307.145 16.0259 308.08 16.8411 308.621 17.9193C309.158 18.9923 309.428 20.2862 309.428 21.8009C309.428 22.4742 309.372 23.1947 309.26 23.9679C309.147 24.7411 309.004 25.5458 308.846 26.3873C308.519 27.9652 308.121 29.4327 307.646 30.7949C307.171 32.1572 306.522 33.3301 305.69 34.3241C304.857 35.3129 303.718 36.0809 302.262 36.6173C300.812 37.1538 298.963 37.4221 296.711 37.4221H287.221L284.729 49.3141H277.732L277.721 49.3036ZM288.335 31.8205H294.892C296.231 31.8205 297.303 31.7206 298.12 31.5155C298.938 31.3156 299.581 30.9948 300.051 30.5582C300.521 30.1217 300.889 29.5273 301.154 28.77C301.415 28.0126 301.644 27.0974 301.839 26.0244C301.966 25.388 302.074 24.8147 302.155 24.3098C302.237 23.8049 302.278 23.3525 302.278 22.9475C302.278 22.2743 302.13 21.7378 301.839 21.3381C301.542 20.9331 301.037 20.6438 300.322 20.4545C299.602 20.2704 298.611 20.1757 297.339 20.1757H290.735L288.34 31.8153L288.335 31.8205Z" fill="#231F20"/>
</svg>
