<svg width="213" height="40" viewBox="0 0 213 40" fill="none" xmlns="http://www.w3.org/2000/svg">
<g clip-path="url(#clip0_260_800)">
<path d="M22.2268 9.51526C19.8981 9.32208 17.5693 9.1043 15.237 8.94273C13.1506 8.79872 11.0607 8.71442 8.97079 8.61256C8.6933 8.59851 8.44743 8.58095 8.22263 8.36317C5.45832 5.67613 2.68347 2.99612 -6.10352e-05 0.193168C1.10988 -0.0772924 2.10742 0.0105193 3.10145 0.0245692C8.73194 0.112381 14.3484 0.417966 19.9473 1.01509C20.6989 1.04319 34.3203 2.36036 44.949 6.65962C46.6104 7.40075 48.2051 8.26482 49.5539 9.51526C51.9142 11.7035 51.9213 14.0815 49.5468 16.2416C47.348 18.2437 44.6329 19.294 41.8967 20.2915C41.6438 20.3828 41.4155 20.281 41.1766 20.1967C40.3371 19.8981 39.4906 19.6136 38.5739 19.2975C39.2202 19.013 39.8313 18.7601 40.4285 18.4756C41.1029 18.1524 41.7562 17.7906 42.2549 17.2146C42.8942 16.477 42.9048 15.7499 42.276 15.0017C41.5665 14.1587 40.6041 13.6811 39.6206 13.2596C36.6315 11.9845 33.4738 11.3136 30.2985 10.7271C27.8292 10.2704 23.4808 9.6382 22.2268 9.51526Z" fill="#97CC6D"/>
<path d="M45.0544 27.5623C44.5732 28.1805 43.976 28.6723 43.3262 29.0868C42.3779 29.6979 41.3944 30.2072 40.3793 30.6498C38.9497 30.2178 37.5236 29.9192 36.1854 29.6874C36.3224 29.5645 36.4523 29.431 36.5788 29.2905C37.4991 28.2578 37.3796 27.4394 36.1819 26.7439C35.0052 26.0555 33.6775 25.7991 32.3603 25.5497C32.1671 25.5146 31.9107 25.4514 31.5068 25.4057C28.4896 25.0544 25.4688 24.8577 22.4306 24.8296C22.2023 24.8296 22.0618 24.7348 21.9213 24.5838C19.2834 21.7668 16.4699 19.1289 13.6775 16.3365C14.4994 16.2206 15.2476 16.3716 15.9887 16.4243C21.8932 16.8458 25.1 17.2532 28.8268 17.9136C33.551 18.6793 38.198 19.719 42.4868 21.9424C43.4632 22.4482 44.3694 23.0664 45.0579 23.9515C45.9922 25.1458 45.9887 26.3646 45.0579 27.5623H45.0544Z" fill="#97CC6D"/>
<path d="M36.93 35.0544C35.0579 34.8367 33.1752 34.7348 31.289 34.7172C31.1485 34.7172 31.0607 34.661 30.9729 34.5662C29.3361 32.817 27.5904 31.1802 25.8552 29.445C26.3645 29.3713 26.8282 29.4696 27.2883 29.4977C28.5282 29.582 31.1801 29.8033 31.282 29.8103C32.5886 29.9508 35.0193 30.3899 35.2581 30.432C38.191 30.9062 41.0783 31.542 43.7407 32.9224C44.3449 33.235 44.9069 33.6214 45.3354 34.1693C45.9149 34.9139 45.9149 35.6691 45.3354 36.4138C45.0368 36.7966 44.668 37.0987 44.2641 37.3586C42.4868 38.5037 40.4882 39.0868 38.4685 39.6031C38.0365 39.712 37.5798 39.7576 37.1654 39.9122C36.5577 40.1405 36.1749 39.9122 35.8482 39.3783C36.5893 39.2167 37.3164 39.0446 38.0119 38.7636C38.7741 38.458 39.5187 38.1138 40.0807 37.4816C40.6533 36.8423 40.5795 36.333 39.8349 35.9009C39.02 35.2898 37.1829 35.0931 36.9406 35.0509L36.93 35.0544Z" fill="#97CC6D"/>
<path d="M61.9423 33.1964C61.1555 33.1964 60.288 33.1682 59.3361 33.112C58.3842 33.0558 57.4569 32.9645 56.5612 32.8416C55.6655 32.7187 54.8682 32.5992 54.1727 32.4868L55.0122 28.3808C55.8201 28.4475 56.649 28.5142 57.5026 28.581C58.3561 28.6477 59.1745 28.6969 59.9578 28.732C60.7411 28.7671 61.4155 28.7812 61.9775 28.7812C62.9855 28.7812 63.8004 28.732 64.4151 28.6301C65.0333 28.5283 65.5145 28.2929 65.8622 27.9241C66.21 27.5553 66.4839 26.9652 66.6877 26.1574C66.7333 25.9326 66.7649 25.7183 66.7895 25.5181C66.8106 25.3179 66.8247 25.1387 66.8247 24.9807C66.8247 24.352 66.6244 23.9269 66.2205 23.7021C65.8166 23.4773 65.1316 23.3649 64.1692 23.3649H60.2001L61.1099 19.0587H65.079C65.7288 19.0587 66.2802 18.9954 66.7263 18.8725C67.1759 18.7496 67.5447 18.5177 67.8363 18.1841C68.1278 17.8469 68.3526 17.3551 68.5106 16.7053C68.5774 16.5051 68.623 16.2908 68.6441 16.066C68.6652 15.8412 68.6792 15.627 68.6792 15.4268C68.6792 14.9561 68.5493 14.6154 68.2929 14.4011C68.0329 14.1869 67.6185 14.0534 67.0495 13.9972C66.4769 13.941 65.7217 13.9129 64.7769 13.9129C64.1271 13.9129 63.4035 13.934 62.6062 13.9796C61.8089 14.0253 61.0185 14.0815 60.2353 14.1482C59.4485 14.215 58.7425 14.2958 58.1173 14.3836L58.9919 10.2107C59.6662 10.0773 60.4285 9.95434 61.2785 9.84194C62.132 9.72954 62.982 9.64524 63.8356 9.58904C64.6891 9.53284 65.4724 9.50474 66.1889 9.50474C68.2753 9.50474 69.9508 9.6909 71.2188 10.0597C72.4868 10.4285 73.4 10.9694 73.962 11.6754C74.524 12.3815 74.8015 13.2631 74.8015 14.3168C74.8015 14.7875 74.7664 15.2547 74.6996 15.7148C74.6329 16.1749 74.5416 16.5859 74.4292 16.9442C74.0463 18.2016 73.4035 19.1465 72.4938 19.7857C71.5841 20.425 70.5479 20.8465 69.3817 21.0467V21.1802C70.4355 21.4261 71.2433 21.83 71.8053 22.392C72.3638 22.954 72.6448 23.8391 72.6448 25.0509C72.6448 25.3425 72.6237 25.6551 72.5781 25.9923C72.5324 26.3295 72.4762 26.6877 72.4095 27.0706C72.2303 28.0119 71.9494 28.8584 71.57 29.6101C71.1871 30.3618 70.6216 31.0011 69.87 31.5279C69.1183 32.0548 68.1032 32.4658 66.8247 32.7573C65.5461 33.0488 63.9198 33.1964 61.9458 33.1964H61.9423Z" fill="#97CC6D"/>
<path d="M84.9876 33.1963C82.9926 33.1963 81.3663 33.0348 80.1088 32.7081C78.8514 32.385 77.9276 31.8124 77.334 30.994C76.7404 30.1756 76.4418 29.0481 76.4418 27.6115C76.4418 26.8037 76.5156 25.8834 76.6596 24.8542C76.8071 23.8216 77.0249 22.6554 77.3164 21.3558C77.766 19.3607 78.2086 17.6677 78.6441 16.2768C79.0832 14.8858 79.5749 13.7478 80.1229 12.8627C80.6708 11.9775 81.3522 11.2926 82.1566 10.8114C82.9645 10.3302 83.962 9.99297 85.1527 9.8033C86.3399 9.61363 87.7976 9.51879 89.5258 9.51879C90.2212 9.51879 90.9553 9.53987 91.7281 9.58553C92.5008 9.63119 93.2419 9.69793 93.9479 9.78574C94.654 9.87706 95.2546 9.97541 95.7463 10.0878L94.8366 14.2255C94.0955 14.1588 93.4351 14.1026 92.8521 14.0569C92.269 14.0112 91.7702 13.9796 91.3557 13.955C90.9413 13.934 90.5865 13.9199 90.295 13.9199C89.2412 13.9199 88.3666 13.9586 87.6712 14.0393C86.9757 14.1166 86.4032 14.2852 85.9571 14.5451C85.5075 14.8015 85.1316 15.1949 84.8296 15.7218C84.5275 16.2487 84.2535 16.9723 84.0041 17.8925C83.7583 18.8128 83.4984 19.9684 83.2314 21.3593C82.9855 22.5044 82.7818 23.4914 82.6273 24.3203C82.4692 25.1493 82.3919 25.8237 82.3919 26.34C82.3919 27.0565 82.55 27.5904 82.8626 27.9382C83.1752 28.2859 83.674 28.5177 84.3589 28.6266C85.0438 28.739 85.9676 28.7952 87.1338 28.7952C87.8503 28.7952 88.6652 28.7671 89.5714 28.7109C90.4811 28.6547 91.282 28.581 91.9774 28.4932L91.0361 32.7327C90.5409 32.824 89.9472 32.9083 89.2518 32.9856C88.5563 33.0629 87.8398 33.1191 87.0986 33.1542C86.3575 33.1893 85.6515 33.2034 84.9771 33.2034L84.9876 33.1963Z" fill="#97CC6D"/>
<path d="M105.209 33.1963C103.01 33.1963 101.226 33.0102 99.8594 32.6414C98.4896 32.2726 97.4991 31.6368 96.8809 30.7411C96.2627 29.8455 95.9571 28.588 95.9571 26.9723C95.9571 26.21 96.0309 25.353 96.1749 24.3976C96.3189 23.4457 96.5296 22.385 96.7966 21.2188C97.2005 19.3361 97.622 17.7134 98.0576 16.3576C98.4966 15.0018 99.02 13.8743 99.6382 12.9751C100.253 12.0794 100.983 11.3769 101.826 10.8711C102.666 10.3653 103.699 10.0141 104.921 9.81033C106.143 9.61012 107.583 9.50826 109.245 9.50826C110.098 9.50826 111.015 9.54338 112.002 9.61012C112.989 9.67685 113.966 9.76115 114.928 9.86301C115.894 9.96488 116.754 10.0808 117.52 10.2178L116.779 13.7829C116.084 13.6951 115.353 13.6108 114.591 13.53C113.829 13.4528 113.112 13.3895 112.438 13.3439C111.763 13.2982 111.205 13.2771 110.755 13.2771C109.431 13.2771 108.317 13.3052 107.408 13.3614C106.498 13.4176 105.743 13.5757 105.139 13.8321C104.535 14.0885 104.022 14.5065 103.607 15.0755C103.193 15.6481 102.827 16.4384 102.515 17.4464C102.199 18.4545 101.876 19.7576 101.538 21.3488C101.293 22.4482 101.099 23.4176 100.966 24.2606C100.832 25.1036 100.762 25.8237 100.762 26.4313C100.762 27.2849 100.92 27.9347 101.233 28.3843C101.545 28.8339 102.062 29.1359 102.782 29.294C103.498 29.4521 104.44 29.5293 105.609 29.5293C105.947 29.5293 106.333 29.5188 106.768 29.4942C107.208 29.4731 107.643 29.438 108.082 29.3923C108.521 29.3467 108.883 29.3256 109.175 29.3256L110.418 23.4387H106.143L106.916 19.9052H115.595L112.905 32.522C112.143 32.6554 111.296 32.7749 110.365 32.8767C109.434 32.9786 108.525 33.0558 107.64 33.112C106.754 33.1682 105.94 33.1963 105.202 33.1963H105.209Z" fill="#231F20"/>
<path d="M118.497 32.9259L123.442 9.77871H134.345C136.027 9.77871 137.323 9.96487 138.23 10.3337C139.139 10.7025 139.779 11.2294 140.147 11.9143C140.516 12.5992 140.702 13.4247 140.702 14.3871C140.702 14.6786 140.685 14.9877 140.653 15.3109C140.618 15.6375 140.576 15.9782 140.52 16.3365C140.464 16.6948 140.379 17.0671 140.267 17.4464C140.088 18.3 139.87 19.0657 139.61 19.7506C139.354 20.4355 139.048 21.0292 138.7 21.5349C138.353 22.0407 137.921 22.4728 137.404 22.831C136.888 23.1893 136.259 23.4809 135.522 23.7057L137.337 32.9259H132.392L131.012 24.2782H125.156L123.305 32.9259H118.493H118.497ZM125.901 20.6779H130.78C131.7 20.6779 132.434 20.6112 132.982 20.4777C133.53 20.3442 133.969 20.1405 134.296 19.8736C134.619 19.6031 134.868 19.2413 135.037 18.7812C135.205 18.321 135.356 17.7661 135.49 17.1163C135.578 16.7369 135.648 16.3892 135.69 16.0731C135.736 15.7604 135.757 15.4795 135.757 15.2336C135.757 14.8296 135.662 14.4995 135.472 14.2395C135.283 13.9831 134.945 13.79 134.464 13.667C133.983 13.5441 133.316 13.4809 132.462 13.4809H127.45L125.901 20.6814V20.6779Z" fill="#231F20"/>
<path d="M151.535 33.1963C149.178 33.1963 147.341 33.0453 146.017 32.7432C144.693 32.4412 143.758 31.9002 143.207 31.1275C142.655 30.3548 142.381 29.2835 142.381 27.9136C142.381 27.0847 142.476 26.1187 142.666 25.0193C142.856 23.9199 143.098 22.6519 143.389 21.2188C143.793 19.2905 144.169 17.6431 144.517 16.2733C144.865 14.9069 145.286 13.7794 145.778 12.8908C146.27 12.0056 146.916 11.3137 147.713 10.8219C148.511 10.3302 149.536 9.98595 150.79 9.79628C152.048 9.6066 153.604 9.51177 155.465 9.51177C157.822 9.51177 159.656 9.6628 160.966 9.96488C162.28 10.2669 163.207 10.8044 163.758 11.5806C164.306 12.3534 164.584 13.4352 164.584 14.8261C164.584 15.6797 164.499 16.6421 164.331 17.7204C164.162 18.7987 163.92 20.0527 163.607 21.4893C163.182 23.4422 162.778 25.1001 162.395 26.47C162.013 27.8398 161.577 28.9603 161.082 29.8349C160.587 30.7095 159.947 31.3945 159.164 31.8862C158.377 32.3815 157.376 32.7222 156.154 32.9118C154.931 33.1015 153.389 33.1963 151.528 33.1963H151.535ZM151.77 29.4275C152.778 29.4275 153.611 29.3923 154.261 29.3256C154.91 29.2589 155.455 29.1008 155.894 28.8549C156.333 28.6091 156.695 28.1946 156.986 27.6115C157.278 27.0285 157.559 26.2311 157.826 25.223C158.096 24.215 158.398 22.9259 158.735 21.3523C159.048 20.007 159.28 18.862 159.424 17.9206C159.571 16.9793 159.642 16.2065 159.642 15.5989C159.642 14.8577 159.494 14.3274 159.203 14.0007C158.911 13.6776 158.44 13.4738 157.791 13.3966C157.141 13.3193 156.277 13.2806 155.198 13.2806C154.19 13.2806 153.354 13.3158 152.69 13.3825C152.03 13.4492 151.479 13.6073 151.043 13.8532C150.604 14.0991 150.242 14.5135 149.951 15.0966C149.659 15.6797 149.378 16.477 149.108 17.4851C148.837 18.4932 148.546 19.7857 148.233 21.3558C148.033 22.2761 147.857 23.1015 147.713 23.8286C147.566 24.5592 147.453 25.1844 147.376 25.7113C147.299 26.2381 147.26 26.7158 147.26 27.1409C147.26 27.8574 147.411 28.3808 147.713 28.7039C148.015 29.0306 148.493 29.2308 149.143 29.308C149.793 29.3853 150.667 29.424 151.767 29.424L151.77 29.4275Z" fill="#231F20"/>
<path d="M176.129 33.1963C173.997 33.1963 172.315 33.0383 171.082 32.7257C169.849 32.4131 168.96 31.8721 168.423 31.1099C167.885 30.3477 167.615 29.3045 167.615 27.9803C167.615 27.3059 167.682 26.5156 167.815 25.6094C167.949 24.6997 168.142 23.6986 168.388 22.5992L171.078 9.78223H175.89L172.929 23.7127C172.771 24.5205 172.645 25.209 172.543 25.7815C172.441 26.3541 172.392 26.8423 172.392 27.2462C172.392 27.8293 172.515 28.2719 172.761 28.5739C173.007 28.876 173.421 29.0832 174.004 29.1956C174.587 29.308 175.371 29.3642 176.361 29.3642C177.46 29.3642 178.328 29.2975 178.967 29.1605C179.607 29.027 180.112 28.7636 180.481 28.3702C180.85 27.9768 181.156 27.4078 181.391 26.6561C181.626 25.9045 181.879 24.9245 182.15 23.7127L185.075 9.78223H189.888L187.197 22.5992C186.839 24.3028 186.491 25.7745 186.154 27.0074C185.817 28.2403 185.42 29.2554 184.96 30.0527C184.499 30.85 183.895 31.4787 183.144 31.9354C182.392 32.3955 181.454 32.7222 180.334 32.9118C179.213 33.1015 177.812 33.1963 176.129 33.1963Z" fill="#231F20"/>
<path d="M190.597 32.9259L195.543 9.77871H206.041C207.699 9.77871 208.992 9.96487 209.912 10.3337C210.832 10.7025 211.475 11.2469 211.847 11.967C212.216 12.6835 212.402 13.5476 212.402 14.5592C212.402 15.0088 212.364 15.49 212.287 16.0063C212.209 16.5227 212.111 17.0601 212.002 17.6221C211.777 18.6758 211.503 19.6558 211.177 20.5655C210.85 21.4752 210.404 22.2585 209.831 22.9224C209.259 23.5827 208.476 24.0955 207.474 24.4538C206.477 24.8121 205.205 24.9912 203.656 24.9912H197.13L195.416 32.9329H190.604L190.597 32.9259ZM197.896 21.2504H202.406C203.326 21.2504 204.064 21.1837 204.626 21.0467C205.188 20.9132 205.63 20.699 205.954 20.4074C206.277 20.1159 206.53 19.719 206.712 19.2132C206.891 18.7074 207.049 18.0962 207.183 17.3797C207.271 16.9547 207.344 16.5718 207.401 16.2346C207.457 15.8974 207.485 15.5954 207.485 15.3249C207.485 14.8753 207.383 14.517 207.183 14.2501C206.979 13.9796 206.631 13.7864 206.14 13.66C205.644 13.5371 204.963 13.4738 204.088 13.4738H199.547L197.899 21.2469L197.896 21.2504Z" fill="#231F20"/>
</g>
<defs>
<clipPath id="clip0_260_800">
<rect width="212.399" height="40.0005" fill="white"/>
</clipPath>
</defs>
</svg>
