<svg width="24" height="24" viewBox="0 0 24 24" fill="none" xmlns="http://www.w3.org/2000/svg">
<path fill-rule="evenodd" clip-rule="evenodd" d="M16.6221 15.1722L20.8661 19.4162L19.4521 20.8312L15.2121 16.5912C13.7984 17.6559 12.034 18.1456 10.2739 17.9618C8.51378 17.778 6.88859 16.9344 5.72539 15.6007C4.56219 14.267 3.94732 12.5422 4.00451 10.7734C4.06171 9.00466 4.78672 7.3232 6.03365 6.06743C7.28058 4.81165 8.95688 4.07478 10.7252 4.00508C12.4935 3.93539 14.2226 4.53806 15.5645 5.69181C16.9064 6.84555 17.7615 8.46474 17.9577 10.2235C18.1539 11.9823 17.6767 13.7501 16.6221 15.1712V15.1722ZM16.0001 11.0002C16.0001 9.67415 15.4733 8.40238 14.5356 7.4647C13.5979 6.52702 12.3261 6.00023 11.0001 6.00023C9.67398 6.00023 8.40221 6.52702 7.46453 7.4647C6.52684 8.40238 6.00006 9.67415 6.00006 11.0002C6.00006 12.3263 6.52684 13.5981 7.46453 14.5358C8.40221 15.4735 9.67398 16.0002 11.0001 16.0002C12.3261 16.0002 13.5979 15.4735 14.5356 14.5358C15.4733 13.5981 16.0001 12.3263 16.0001 11.0002Z" fill="#828181"/>
</svg>
