<svg width="22" height="22" viewBox="0 0 22 22" fill="none" xmlns="http://www.w3.org/2000/svg">
<path d="M21 11.0002C21 5.47724 16.523 1.00024 11 1.00024C5.477 1.00024 1 5.47724 1 11.0002C1 16.5232 5.477 21.0002 11 21.0002C16.523 21.0002 21 16.5232 21 11.0002Z" stroke="#828181" stroke-width="1.5" stroke-linecap="round" stroke-linejoin="round"/>
<path d="M19 4.69924C18.065 4.76624 16.868 5.12924 16.038 6.20324C14.538 8.14324 13.039 8.30624 12.039 7.65924C10.539 6.68924 11.8 5.11624 10.04 4.26224C8.893 3.70524 8.733 2.19024 9.372 1.00024M1 10.0002C1.763 10.6622 2.83 11.2682 4.089 11.2682C6.689 11.2682 7.209 11.7652 7.209 13.7522C7.209 15.7392 7.209 15.7392 7.729 17.2292C8.067 18.1992 8.185 19.1672 7.511 20.0002M21 12.4522C20.113 11.9422 19 11.7312 17.873 12.5402C15.718 14.0902 14.231 12.8062 13.562 14.0892C12.577 15.9772 16.096 16.5702 13 21.0002" stroke="#828181" stroke-width="1.5" stroke-linecap="round" stroke-linejoin="round"/>
</svg>
