<svg width="310" height="60" fill="none" xmlns="http://www.w3.org/2000/svg"><path d="M32.897 14.248c-3.386-.289-6.773-.615-10.164-.857-3.034-.216-6.073-.342-9.112-.494-.403-.021-.76-.048-1.088-.374C8.513 8.5 4.48 4.486.577.29 2.19-.116 3.64.016 5.087.037 13.274.168 21.44.626 29.582 1.52c1.093.042 20.9 2.014 36.355 8.452 2.416 1.11 4.734 2.404 6.695 4.276 3.433 3.277 3.443 6.838-.01 10.072-3.197 2.998-7.145 4.571-11.124 6.065-.367.137-.7-.016-1.047-.142-1.22-.447-2.451-.873-3.784-1.347.94-.426 1.828-.804 2.696-1.23.981-.484 1.931-1.026 2.656-1.889.93-1.104.945-2.193.03-3.313-1.03-1.262-2.43-1.978-3.86-2.609-4.347-1.91-8.938-2.914-13.555-3.792-3.59-.684-9.914-1.63-11.737-1.815zM66.09 41.272c-.7.926-1.568 1.662-2.513 2.283a29.695 29.695 0 01-4.285 2.34c-2.079-.647-4.152-1.094-6.098-1.44.199-.185.388-.385.572-.595 1.338-1.546 1.164-2.772-.578-3.813-1.71-1.031-3.641-1.415-5.556-1.789-.281-.052-.654-.147-1.241-.215-4.388-.526-8.78-.82-13.198-.863-.332 0-.536-.142-.74-.368-3.836-4.218-7.927-8.168-11.988-12.35 1.195-.173 2.283.053 3.36.132 8.586.631 13.25 1.241 18.669 2.23 6.87 1.147 13.626 2.703 19.862 6.033 1.42.757 2.738 1.683 3.739 3.008 1.359 1.789 1.353 3.614 0 5.407h-.005zM54.276 52.49a74.975 74.975 0 00-8.202-.504c-.204 0-.332-.084-.46-.226-2.38-2.62-4.918-5.07-7.441-7.669.74-.11 1.414.037 2.083.08 1.803.125 5.66.457 5.808.467 1.9.21 5.434.868 5.781.931 4.265.71 8.463 1.662 12.335 3.73.878.467 1.695 1.046 2.318 1.867.843 1.115.843 2.245 0 3.36-.434.574-.97 1.026-1.557 1.415-2.585 1.715-5.49 2.588-8.428 3.361-.628.163-1.292.232-1.895.463-.883.342-1.44 0-1.915-.8 1.078-.241 2.135-.5 3.146-.92 1.109-.458 2.192-.973 3.009-1.92.832-.957.725-1.72-.358-2.367-1.185-.915-3.856-1.21-4.208-1.272l-.016.005zM90.647 49.709c-1.145 0-2.406-.042-3.79-.127a50.926 50.926 0 01-4.035-.405 143.876 143.876 0 01-3.473-.53l1.22-6.15c1.175.1 2.38.2 3.622.3 1.24.1 2.43.174 3.57.227a64.18 64.18 0 002.937.073c1.465 0 2.65-.073 3.544-.226.899-.152 1.599-.505 2.104-1.057.506-.552.904-1.436 1.2-2.646.067-.336.113-.657.149-.957.03-.3.05-.568.05-.805 0-.941-.29-1.578-.878-1.914-.587-.337-1.583-.505-2.982-.505h-5.772l1.323-6.448h5.771c.945 0 1.747-.095 2.396-.28a3.21 3.21 0 001.614-1.03c.424-.505.75-1.241.98-2.214.097-.3.164-.621.194-.958.031-.336.052-.657.052-.957 0-.705-.189-1.215-.562-1.536-.378-.32-.98-.52-1.808-.605-.833-.084-1.93-.126-3.305-.126-.945 0-1.997.032-3.156.1-1.16.069-2.309.153-3.448.253-1.144.1-2.17.22-3.08.352l1.272-6.248c.98-.2 2.09-.384 3.325-.553a55.6 55.6 0 017.14-.505c3.034 0 5.47.28 7.314.831 1.844.553 3.172 1.363 3.989 2.42.817 1.057 1.221 2.377 1.221 3.955 0 .705-.051 1.404-.148 2.094-.097.689-.23 1.304-.394 1.84-.556 1.883-1.491 3.298-2.814 4.255-1.323.958-2.829 1.589-4.525 1.889v.2c1.532.368 2.707.972 3.524 1.814.812.842 1.221 2.167 1.221 3.982 0 .436-.031.904-.097 1.41a45.784 45.784 0 01-.245 1.614c-.261 1.41-.669 2.677-1.221 3.803-.557 1.125-1.379 2.082-2.472 2.871-1.093.79-2.57 1.405-4.428 1.841-1.86.437-4.224.658-7.094.658h-.005zM124.156 49.709c-2.901 0-5.266-.242-7.094-.731-1.829-.484-3.172-1.341-4.035-2.567-.863-1.225-1.297-2.914-1.297-5.065 0-1.21.107-2.588.316-4.129.215-1.546.532-3.292.956-5.238.653-2.988 1.297-5.523 1.93-7.606.639-2.083 1.354-3.787 2.15-5.112.797-1.326 1.788-2.351 2.958-3.072 1.174-.72 2.625-1.225 4.356-1.51 1.727-.283 3.846-.425 6.359-.425a52.706 52.706 0 016.43.4c1.027.136 1.9.283 2.615.452l-1.323 6.196a241.95 241.95 0 00-2.885-.253c-.848-.068-1.573-.116-2.176-.152a30.945 30.945 0 00-1.543-.053c-1.532 0-2.803.058-3.815.179-1.011.116-1.844.368-2.492.757-.654.384-1.2.973-1.64 1.762-.439.79-.837 1.873-1.2 3.25-.357 1.379-.735 3.11-1.124 5.192a180.179 180.179 0 00-.878 4.434c-.23 1.241-.342 2.25-.342 3.024 0 1.073.23 1.873.684 2.393.455.52 1.18.868 2.176 1.031.996.168 2.339.252 4.035.252 1.042 0 2.227-.041 3.544-.126a53.842 53.842 0 003.499-.326l-1.369 6.349c-.72.136-1.583.263-2.594.378-1.012.116-2.054.2-3.131.253a63.27 63.27 0 01-3.085.073l.015-.01z" fill="#97CC6D"/><path d="M153.56 49.709c-3.197 0-5.792-.28-7.779-.832-1.992-.552-3.432-1.504-4.331-2.845-.899-1.341-1.343-3.224-1.343-5.643 0-1.142.107-2.425.317-3.856.209-1.425.515-3.014.904-4.76.587-2.819 1.2-5.249 1.833-7.28.639-2.03 1.4-3.718 2.299-5.064.893-1.341 1.956-2.393 3.181-3.15 1.221-.758 2.723-1.284 4.5-1.59 1.777-.299 3.872-.451 6.287-.451 1.241 0 2.575.052 4.01.152 1.435.1 2.855.226 4.254.379 1.405.152 2.656.326 3.769.531l-1.077 5.338a156.294 156.294 0 00-3.182-.378 91.526 91.526 0 00-3.131-.279c-.981-.068-1.793-.1-2.446-.1-1.926 0-3.545.042-4.868.126-1.323.084-2.421.321-3.299.705-.879.384-1.624 1.01-2.227 1.862-.603.857-1.134 2.04-1.588 3.55-.46 1.51-.93 3.461-1.42 5.844a73.43 73.43 0 00-.833 4.36c-.194 1.262-.296 2.34-.296 3.25 0 1.279.23 2.252.684 2.925.455.673 1.206 1.125 2.253 1.362 1.042.237 2.41.352 4.111.352.49 0 1.052-.015 1.686-.052a33.44 33.44 0 001.91-.153c.638-.068 1.164-.1 1.588-.1l1.808-8.815h-6.215l1.123-5.29h12.621l-3.913 18.892c-1.108.2-2.339.378-3.692.53a85.008 85.008 0 01-3.964.353 54.698 54.698 0 01-3.544.127h.01zM172.881 49.304l7.191-34.661h15.854c2.446 0 4.331.278 5.649.83 1.322.553 2.252 1.342 2.788 2.367.536 1.026.807 2.262.807 3.703 0 .437-.025.9-.071 1.384-.051.489-.113.999-.194 1.535a13.377 13.377 0 01-.368 1.662c-.261 1.279-.577 2.425-.955 3.45-.373 1.026-.817 1.915-1.323 2.673a7.463 7.463 0 01-1.885 1.94c-.75.537-1.665.973-2.737 1.31l2.64 13.807h-7.191l-2.007-12.95h-8.514l-2.692 12.95h-6.997.005zm10.766-18.34h7.095c1.338 0 2.405-.1 3.202-.3.797-.2 1.435-.506 1.91-.905.47-.405.833-.947 1.078-1.636.245-.689.465-1.52.659-2.493.127-.568.23-1.089.291-1.562.066-.468.097-.889.097-1.257 0-.605-.138-1.1-.414-1.489-.276-.384-.766-.673-1.466-.857-.699-.184-1.67-.279-2.911-.279H185.9l-2.253 10.782v-.005zM220.922 49.709c-3.427 0-6.099-.227-8.024-.679-1.926-.452-3.284-1.262-4.086-2.42-.802-1.156-1.2-2.76-1.2-4.812 0-1.241.138-2.688.413-4.334.276-1.646.629-3.545 1.053-5.69a187.425 187.425 0 011.639-7.406c.506-2.046 1.119-3.735 1.834-5.065.715-1.326 1.654-2.362 2.814-3.098 1.159-.737 2.651-1.252 4.474-1.536 1.828-.284 4.091-.426 6.798-.426 3.427 0 6.093.226 7.998.678 1.91.453 3.259 1.258 4.061 2.42.796 1.157 1.2 2.777 1.2 4.86 0 1.278-.123 2.719-.368 4.334-.245 1.614-.597 3.492-1.052 5.643-.618 2.925-1.205 5.407-1.762 7.458-.557 2.052-1.19 3.73-1.91 5.04-.72 1.309-1.65 2.334-2.789 3.07-1.144.742-2.6 1.253-4.377 1.537-1.777.284-4.02.426-6.726.426h.01zm.342-5.644c1.466 0 2.676-.052 3.621-.152.945-.1 1.737-.337 2.375-.705.638-.368 1.165-.99 1.588-1.862.424-.873.833-2.067 1.221-3.577.393-1.51.833-3.44 1.323-5.796.455-2.014.792-3.729 1.001-5.139.215-1.41.317-2.566.317-3.476 0-1.11-.215-1.904-.639-2.393-.424-.484-1.108-.79-2.053-.905-.945-.116-2.201-.173-3.769-.173-1.466 0-2.682.052-3.647.152-.96.1-1.762.337-2.395.705-.639.368-1.165.989-1.589 1.862-.424.873-.832 2.067-1.226 3.576-.393 1.51-.817 3.445-1.271 5.796a210.937 210.937 0 00-.756 3.703 55.042 55.042 0 00-.49 2.82 15.241 15.241 0 00-.169 2.14c0 1.073.22 1.857.659 2.34.439.49 1.134.79 2.079.905.944.116 2.216.174 3.815.174l.005.005zM256.684 49.709c-3.101 0-5.547-.237-7.34-.705-1.792-.468-3.085-1.278-3.866-2.42-.782-1.14-1.175-2.703-1.175-4.686 0-1.01.097-2.193.291-3.55.194-1.362.475-2.861.833-4.507l3.912-19.193h6.997l-4.305 20.86c-.23 1.21-.414 2.24-.562 3.098-.148.857-.22 1.588-.22 2.193 0 .873.179 1.536.537 1.988.357.453.96.763 1.808.931.847.168 1.986.253 3.427.253 1.598 0 2.86-.1 3.789-.305.93-.2 1.665-.595 2.202-1.184.536-.589.98-1.441 1.323-2.566.342-1.126.709-2.593 1.103-4.408l4.254-20.86h6.997l-3.912 19.193c-.521 2.55-1.026 4.754-1.517 6.6-.49 1.847-1.067 3.367-1.736 4.56-.669 1.195-1.548 2.136-2.641 2.82-1.093.689-2.457 1.178-4.086 1.462-1.629.284-3.667.426-6.113.426zM277.721 49.304l7.192-34.661h15.266c2.41 0 4.29.278 5.628.83 1.338.553 2.273 1.368 2.814 2.446.537 1.073.807 2.367.807 3.882 0 .673-.056 1.394-.168 2.167a61.137 61.137 0 01-.414 2.42 34.882 34.882 0 01-1.2 4.407c-.475 1.362-1.124 2.535-1.956 3.53-.833.988-1.972 1.756-3.428 2.292-1.45.537-3.299.805-5.551.805h-9.49l-2.492 11.892h-6.997l-.011-.01zm10.614-17.484h6.557c1.339 0 2.411-.1 3.228-.305.818-.2 1.461-.52 1.931-.957.47-.436.838-1.03 1.103-1.788.261-.757.49-1.673.685-2.746.127-.636.235-1.21.316-1.714.082-.505.123-.957.123-1.362 0-.674-.148-1.21-.439-1.61-.297-.405-.802-.694-1.517-.884-.72-.184-1.711-.278-2.983-.278h-6.604l-2.395 11.64-.005.005z" fill="#231F20"/></svg>