<svg width="213" height="40" fill="none" xmlns="http://www.w3.org/2000/svg"><g clip-path="url(#clip0_260_800)"><path d="M22.227 9.515c-2.329-.193-4.658-.41-6.99-.572-2.086-.144-4.176-.229-6.266-.33-.278-.014-.524-.032-.748-.25C5.458 5.676 2.683 2.996 0 .193 1.11-.077 2.107.011 3.1.025c5.63.087 11.247.393 16.846.99C20.7 1.043 34.32 2.36 44.95 6.66c1.661.74 3.256 1.605 4.605 2.855 2.36 2.188 2.367 4.566-.007 6.727-2.199 2.002-4.914 3.052-7.65 4.05-.253.09-.481-.011-.72-.095-.84-.299-1.686-.583-2.603-.9.646-.284 1.257-.537 1.855-.821.674-.324 1.327-.685 1.826-1.261.64-.738.65-1.465.021-2.213-.71-.843-1.672-1.32-2.655-1.742-2.99-1.275-6.147-1.946-9.323-2.533-2.469-.457-6.817-1.089-8.071-1.212zM45.054 27.562c-.48.618-1.078 1.11-1.728 1.525a20.621 20.621 0 01-2.947 1.563c-1.43-.432-2.855-.73-4.194-.963.137-.123.267-.256.394-.396.92-1.033.8-1.852-.397-2.547-1.177-.689-2.505-.945-3.822-1.194-.193-.035-.45-.099-.853-.144a85.184 85.184 0 00-9.076-.576c-.229 0-.37-.095-.51-.246-2.638-2.817-5.451-5.455-8.243-8.247.821-.116 1.57.035 2.31.087 5.905.422 9.112.83 12.839 1.49 4.724.765 9.371 1.805 13.66 4.028.976.506 1.882 1.124 2.57 2.01.935 1.194.932 2.413 0 3.61h-.003zM36.93 35.054a53.107 53.107 0 00-5.641-.337c-.14 0-.228-.056-.316-.15-1.637-1.75-3.383-3.387-5.118-5.122.51-.074.973.025 1.433.053 1.24.084 3.892.305 3.994.312 1.307.14 3.737.58 3.976.622 2.933.474 5.82 1.11 8.483 2.49.604.313 1.166.7 1.594 1.247.58.745.58 1.5 0 2.245a4.233 4.233 0 01-1.07.945c-1.778 1.145-3.777 1.728-5.797 2.244-.432.109-.888.155-1.303.31-.607.228-.99 0-1.317-.535.741-.161 1.468-.333 2.164-.614.762-.306 1.507-.65 2.069-1.282.572-.64.498-1.149-.246-1.581-.815-.611-2.652-.808-2.894-.85l-.011.003zM61.942 33.196c-.786 0-1.654-.028-2.606-.084a36.076 36.076 0 01-2.775-.27c-.895-.123-1.693-.243-2.388-.355l.84-4.106c.807.067 1.636.133 2.49.2.853.067 1.672.116 2.455.151.783.035 1.458.05 2.02.05 1.008 0 1.822-.05 2.437-.152.618-.102 1.1-.337 1.447-.706.348-.369.622-.959.826-1.767.045-.224.077-.439.102-.639.02-.2.035-.38.035-.537 0-.629-.2-1.054-.605-1.279-.403-.225-1.088-.337-2.05-.337H60.2l.91-4.306h3.969c.65 0 1.201-.064 1.647-.187.45-.122.819-.354 1.11-.688.292-.337.517-.829.675-1.479.066-.2.112-.414.133-.639.021-.225.035-.439.035-.64 0-.47-.13-.81-.386-1.025-.26-.214-.675-.348-1.244-.404-.572-.056-1.327-.084-2.272-.084-.65 0-1.373.021-2.17.067-.798.045-1.588.101-2.372.168a38.98 38.98 0 00-2.118.236l.875-4.173a36.612 36.612 0 012.287-.37 39.357 39.357 0 014.91-.336c2.086 0 3.762.186 5.03.555 1.268.368 2.181.91 2.743 1.615.562.707.84 1.588.84 2.642 0 .47-.036.938-.102 1.398-.067.46-.158.87-.27 1.23-.384 1.257-1.027 2.201-1.936 2.84-.91.64-1.946 1.061-3.112 1.262v.133c1.053.246 1.861.65 2.423 1.212.559.562.84 1.447.84 2.659 0 .292-.021.604-.067.941-.046.337-.102.696-.169 1.079a9.59 9.59 0 01-.839 2.54c-.383.75-.948 1.39-1.7 1.917-.752.527-1.767.938-3.045 1.23-1.279.29-2.905.438-4.88.438h-.003zM84.988 33.196c-1.995 0-3.622-.161-4.88-.488-1.257-.323-2.18-.896-2.774-1.714-.594-.818-.892-1.946-.892-3.383 0-.807.074-1.728.218-2.757.147-1.032.365-2.199.656-3.498.45-1.995.893-3.688 1.328-5.08.44-1.39.93-2.528 1.479-3.413.548-.886 1.23-1.57 2.034-2.052.808-.48 1.805-.818 2.996-1.008 1.187-.19 2.645-.284 4.373-.284a37.358 37.358 0 014.422.267c.706.091 1.307.19 1.798.302l-.91 4.138a174.71 174.71 0 00-1.984-.17 77.578 77.578 0 00-1.496-.101c-.415-.021-.77-.035-1.061-.035-1.054 0-1.928.039-2.624.12-.695.077-1.268.245-1.714.505-.45.257-.825.65-1.127 1.177-.302.527-.576 1.25-.826 2.17-.246.92-.506 2.076-.773 3.467-.245 1.145-.45 2.132-.604 2.961-.158.83-.235 1.504-.235 2.02 0 .716.158 1.25.47 1.598.313.348.812.58 1.497.689.685.112 1.609.168 2.775.168.716 0 1.531-.028 2.437-.084.91-.056 1.711-.13 2.406-.218l-.94 4.24c-.496.091-1.09.175-1.785.253-.696.077-1.412.133-2.153.168a44.73 44.73 0 01-2.122.05l.01-.008z" fill="#97CC6D"/><path d="M105.209 33.196c-2.199 0-3.983-.186-5.35-.555-1.37-.368-2.36-1.004-2.978-1.9-.618-.895-.924-2.153-.924-3.769 0-.762.074-1.619.218-2.574a43.83 43.83 0 01.622-3.18c.404-1.882.825-3.505 1.26-4.86.44-1.356.963-2.484 1.581-3.383.615-.896 1.345-1.598 2.188-2.104.84-.506 1.873-.857 3.095-1.06 1.222-.2 2.662-.303 4.324-.303.853 0 1.77.035 2.757.102.987.067 1.964.151 2.926.253.966.102 1.826.218 2.592.355l-.741 3.565c-.695-.088-1.426-.172-2.188-.253a65.062 65.062 0 00-2.153-.186 25.483 25.483 0 00-1.683-.067c-1.324 0-2.438.028-3.347.084-.91.057-1.665.215-2.269.471a3.653 3.653 0 00-1.532 1.243c-.414.573-.78 1.363-1.092 2.371-.316 1.008-.639 2.312-.977 3.903a48.316 48.316 0 00-.572 2.912c-.134.843-.204 1.563-.204 2.17 0 .854.158 1.504.471 1.953.312.45.829.752 1.549.91.716.158 1.658.235 2.827.235.338 0 .724-.01 1.159-.035.44-.02.875-.056 1.314-.102.439-.045.801-.066 1.093-.066l1.243-5.887h-4.275l.773-3.534h8.679l-2.69 12.617c-.762.133-1.609.253-2.54.355-.931.102-1.84.179-2.725.235-.886.056-1.7.084-2.438.084h.007zM118.497 32.926l4.945-23.147h10.903c1.682 0 2.978.186 3.885.555.909.369 1.549.895 1.917 1.58.369.685.555 1.51.555 2.473 0 .292-.017.6-.049.924-.035.326-.077.667-.133 1.026-.056.358-.141.73-.253 1.11-.179.853-.397 1.619-.657 2.304a8.2 8.2 0 01-.91 1.784 5.028 5.028 0 01-1.296 1.296c-.516.358-1.145.65-1.882.875l1.815 9.22h-4.945l-1.38-8.648h-5.856l-1.851 8.648h-4.812.004zm7.404-12.248h4.879c.92 0 1.654-.067 2.202-.2.548-.134.987-.338 1.314-.604.323-.27.572-.633.741-1.093.168-.46.319-1.015.453-1.665.088-.38.158-.727.2-1.043.046-.313.067-.594.067-.84 0-.403-.095-.734-.285-.994-.189-.256-.527-.449-1.008-.572-.481-.123-1.148-.186-2.002-.186h-5.012l-1.549 7.2v-.003zM151.535 33.196c-2.357 0-4.194-.15-5.518-.453-1.324-.302-2.259-.843-2.81-1.616-.552-.772-.826-1.843-.826-3.213 0-.83.095-1.795.285-2.895a122.41 122.41 0 011.851-8.746c.348-1.366.769-2.494 1.261-3.382.492-.885 1.138-1.577 1.935-2.07.798-.49 1.823-.835 3.077-1.025 1.258-.19 2.814-.284 4.675-.284 2.357 0 4.191.15 5.501.453 1.314.302 2.241.84 2.792 1.616.548.772.826 1.854.826 3.245 0 .854-.085 1.816-.253 2.894a66.156 66.156 0 01-.724 3.77 89.64 89.64 0 01-1.212 4.98c-.382 1.37-.818 2.49-1.313 3.365-.495.874-1.135 1.56-1.918 2.051-.787.496-1.788.836-3.01 1.026-1.223.19-2.765.284-4.626.284h.007zm.235-3.768c1.008 0 1.841-.036 2.491-.102.649-.067 1.194-.225 1.633-.471.439-.246.801-.66 1.092-1.244.292-.582.573-1.38.84-2.388.27-1.008.572-2.297.909-3.87.313-1.346.545-2.491.689-3.432.147-.942.218-1.715.218-2.322 0-.741-.148-1.272-.439-1.598-.292-.323-.763-.527-1.412-.604-.65-.078-1.514-.116-2.593-.116-1.008 0-1.844.035-2.508.101-.66.067-1.211.225-1.647.471-.439.246-.801.66-1.092 1.244-.292.583-.573 1.38-.843 2.388-.271 1.008-.562 2.3-.875 3.87-.2.921-.376 1.747-.52 2.474-.147.73-.26 1.355-.337 1.882a9.989 9.989 0 00-.116 1.43c0 .716.151 1.24.453 1.563.302.327.78.527 1.43.604.65.077 1.524.116 2.624.116l.003.003zM176.129 33.196c-2.132 0-3.814-.158-5.047-.47-1.233-.313-2.122-.854-2.659-1.616-.538-.762-.808-1.805-.808-3.13 0-.674.067-1.464.2-2.37.134-.91.327-1.911.573-3.01l2.69-12.818h4.812l-2.961 13.93c-.158.808-.284 1.497-.386 2.07a8.532 8.532 0 00-.151 1.464c0 .583.123 1.026.369 1.328.246.302.66.51 1.243.622.583.112 1.367.168 2.357.168 1.099 0 1.967-.067 2.606-.204.64-.133 1.145-.396 1.514-.79.369-.393.675-.962.91-1.714s.488-1.732.759-2.943l2.925-13.93h4.813l-2.691 12.816a77.339 77.339 0 01-1.043 4.408c-.337 1.233-.734 2.248-1.194 3.046a5.206 5.206 0 01-1.816 1.882c-.752.46-1.69.787-2.81.977-1.121.19-2.522.284-4.205.284zM190.597 32.926l4.946-23.147h10.498c1.658 0 2.951.186 3.871.555.92.369 1.563.913 1.935 1.633.369.716.555 1.58.555 2.592 0 .45-.038.931-.115 1.447a39.675 39.675 0 01-.285 1.616 22.891 22.891 0 01-.825 2.944c-.327.91-.773 1.693-1.346 2.356-.572.66-1.355 1.174-2.357 1.532-.997.358-2.269.537-3.818.537h-6.526l-1.714 7.942h-4.812l-.007-.007zm7.299-11.676h4.51c.92 0 1.658-.066 2.22-.203.562-.134 1.004-.348 1.328-.64.323-.291.576-.688.758-1.194.179-.506.337-1.117.471-1.833.088-.425.161-.808.218-1.145.056-.338.084-.64.084-.91 0-.45-.102-.808-.302-1.075-.204-.27-.552-.464-1.043-.59-.496-.123-1.177-.186-2.052-.186h-4.541l-1.648 7.773-.003.003z" fill="#231F20"/></g><defs><clipPath id="clip0_260_800"><rect width="212.399" height="40.001" fill="white"/></clipPath></defs></svg>