<svg width="40" height="40" viewBox="0 0 40 40" fill="none" xmlns="http://www.w3.org/2000/svg">
<path d="M32 27.5C31.25 27.5 30.5 27.2 29.9 26.6L25.4 22.1C24.8 21.5 24.5 20.75 24.5 20C24.5 19.25 24.8 18.5 25.4 17.9L29.9 13.4C30.5 12.8 31.25 12.5 32 12.5C32.75 12.5 33.5 12.8 34.1 13.4L38.6 17.9C39.2 18.5 39.5 19.25 39.5 20C39.5 20.75 39.2 21.5 38.6 22.1L34.1 26.6C33.5 27.2 32.75 27.5 32 27.5ZM32 15.5L27.5 20L32 24.5L36.5 20L32 15.5ZM20 15.5C19.25 15.5 18.5 15.2 17.9 14.6L13.4 10.1C12.8 9.5 12.5 8.75 12.5 8C12.5 7.25 12.8 6.5 13.4 5.9L17.9 1.4C18.5 0.8 19.25 0.5 20 0.5C20.75 0.5 21.5 0.8 22.1 1.4L26.6 5.9C27.2 6.5 27.5 7.25 27.5 8C27.5 8.75 27.2 9.5 26.6 10.1L22.1 14.6C21.5 15.2 20.75 15.5 20 15.5ZM20 3.5L15.5 8L20 12.5L24.5 8L20 3.5ZM20 39.5C19.25 39.5 18.5 39.2 17.9 38.6L13.4 34.1C12.8 33.5 12.5 32.75 12.5 32C12.5 31.25 12.8 30.5 13.4 29.9L17.9 25.4C18.5 24.8 19.25 24.5 20 24.5C20.75 24.5 21.5 24.8 22.1 25.4L26.6 29.9C27.2 30.5 27.5 31.25 27.5 32C27.5 32.75 27.2 33.5 26.6 34.1L22.1 38.6C21.5 39.2 20.75 39.5 20 39.5ZM20 27.5L15.5 32L20 36.5L24.5 32L20 27.5ZM8 27.5C7.25 27.5 6.5 27.2 5.9 26.6L1.4 22.1C0.8 21.5 0.5 20.75 0.5 20C0.5 19.25 0.8 18.5 1.4 17.9L5.9 13.4C6.5 12.8 7.25 12.5 8 12.5C8.75 12.5 9.5 12.8 10.1 13.4L14.6 17.9C15.2 18.5 15.5 19.25 15.5 20C15.5 20.75 15.2 21.5 14.6 22.1L10.1 26.6C9.5 27.2 8.75 27.5 8 27.5ZM8 15.5L3.5 20L8 24.5L12.5 20L8 15.5Z" fill="white"/>
</svg>
