<svg width="48" height="48" viewBox="0 0 48 48" fill="none" xmlns="http://www.w3.org/2000/svg">
<g clip-path="url(#clip0_2001_479)">
<path d="M20 6.5C15.808 6.5 12.342 9.82 12.342 14C12.342 18.18 15.808 21.5 20 21.5C23.3 21.5 26.15 19.442 27.214 16.528C27.7197 17.6066 28.5748 18.4829 29.6409 19.0146C30.7069 19.5463 31.9213 19.7023 33.0871 19.4574C34.2529 19.2124 35.3018 18.5808 36.0637 17.6651C36.8256 16.7493 37.2559 15.603 37.2847 14.4121C37.3134 13.2211 36.9391 12.0554 36.2223 11.1039C35.5056 10.1523 34.4884 9.47082 33.3358 9.16983C32.1832 8.86883 30.9627 8.96601 29.8722 9.44559C28.7817 9.92517 27.8852 10.759 27.328 11.812C26.368 8.72 23.428 6.5 20 6.5ZM15.342 14C15.342 11.552 17.39 9.5 20 9.5C22.61 9.5 24.658 11.552 24.658 14C24.658 16.448 22.61 18.5 20 18.5C17.39 18.5 15.342 16.448 15.342 14ZM28.714 14.286C28.714 13.4145 29.0602 12.5787 29.6765 11.9624C30.2927 11.3462 31.1285 11 32 11C32.8715 11 33.7073 11.3462 34.3236 11.9624C34.9398 12.5787 35.286 13.4145 35.286 14.286C35.286 15.1575 34.9398 15.9933 34.3236 16.6096C33.7073 17.2258 32.8715 17.572 32 17.572C31.1285 17.572 30.2927 17.2258 29.6765 16.6096C29.0602 15.9933 28.714 15.1575 28.714 14.286ZM16.57 23.414C15.764 22.892 14.602 22.49 13.378 22.826C13.0513 22.9167 12.726 23.0133 12.402 23.116L10.434 23.748C7.96801 24.536 6.05801 26.494 5.41401 28.974L5.39201 29.054L4.55201 34.958C4.21801 37.318 5.52201 39.76 8.11201 40.36C10.506 40.916 14.364 41.5 20 41.5C25.636 41.5 29.492 40.916 31.89 40.36C34.476 39.76 35.782 37.32 35.448 34.958L34.608 29.056L34.588 28.974C33.942 26.494 32.032 24.536 29.566 23.748L27.598 23.116C27.274 23.0133 26.9487 22.9167 26.622 22.826C25.398 22.49 24.236 22.892 23.43 23.414C22.69 23.894 21.482 24.472 20 24.472C18.52 24.472 17.31 23.894 16.57 23.414ZM14.174 25.716C14.302 25.682 14.578 25.696 14.942 25.93C15.966 26.594 17.742 27.47 20 27.47C22.258 27.47 24.034 26.594 25.06 25.93C25.42 25.696 25.698 25.682 25.826 25.716C26.1127 25.796 26.398 25.8813 26.682 25.972L28.652 26.602C30.152 27.082 31.268 28.242 31.664 29.65L32.476 35.378C32.626 36.432 32.064 37.238 31.21 37.438C29.056 37.938 25.428 38.498 20 38.498C14.572 38.498 10.944 37.938 8.79001 37.438C7.93601 37.238 7.37401 36.432 7.52201 35.378L8.33601 29.65C8.54671 28.9324 8.93218 28.2783 9.45785 27.7464C9.98353 27.2144 10.633 26.8212 11.348 26.602L13.318 25.972C13.602 25.8813 13.8873 25.796 14.174 25.716Z" fill="white"/>
<path d="M36.366 20.596C36.0508 20.5174 35.7217 20.5129 35.4045 20.5831C35.0873 20.6532 34.7907 20.7959 34.538 21C33.998 21.42 33.042 22 32 22C31.7348 22 31.4804 22.1054 31.2929 22.2929C31.1054 22.4805 31 22.7348 31 23C31 23.2652 31.1054 23.5196 31.2929 23.7071C31.4804 23.8947 31.7348 24 32 24C33.716 24 35.112 23.086 35.766 22.58C35.7902 22.5571 35.8198 22.5406 35.852 22.532H35.86C36.128 22.6027 36.394 22.6814 36.658 22.768L38.028 23.218C39.08 23.564 39.878 24.406 40.16 25.446L40.726 29.544C40.838 30.35 40.414 30.954 39.806 31.098C39.3593 31.2074 38.8173 31.314 38.18 31.418C38.0503 31.439 37.9259 31.4854 37.8141 31.5545C37.7023 31.6235 37.6051 31.7139 37.5282 31.8205C37.4514 31.9271 37.3962 32.0478 37.366 32.1757C37.3357 32.3037 37.331 32.4363 37.352 32.566C37.373 32.6958 37.4194 32.8201 37.4884 32.9319C37.5575 33.0438 37.6479 33.1409 37.7545 33.2178C37.8611 33.2947 37.9818 33.3498 38.1097 33.38C38.2376 33.4103 38.3703 33.415 38.5 33.394C39.1827 33.2807 39.772 33.164 40.268 33.044C42.058 32.618 42.934 30.904 42.708 29.27L42.126 25.058L42.112 25.004C41.893 24.1477 41.4609 23.3606 40.8559 22.7162C40.251 22.0717 39.4928 21.5907 38.652 21.318L37.282 20.868C36.9794 20.7683 36.674 20.6775 36.366 20.596Z" fill="white"/>
</g>
<defs>
<clipPath id="clip0_2001_479">
<rect width="48" height="48" fill="white"/>
</clipPath>
</defs>
</svg>
