<svg width="40" height="40" fill="none" xmlns="http://www.w3.org/2000/svg"><path d="M32 27.5c-.75 0-1.5-.3-2.1-.9l-4.5-4.5c-.6-.6-.9-1.35-.9-2.1s.3-1.5.9-2.1l4.5-4.5c.6-.6 1.35-.9 2.1-.9s1.5.3 2.1.9l4.5 4.5c.6.6.9 1.35.9 2.1s-.3 1.5-.9 2.1l-4.5 4.5c-.6.6-1.35.9-2.1.9zm0-12L27.5 20l4.5 4.5 4.5-4.5-4.5-4.5zm-12 0c-.75 0-1.5-.3-2.1-.9l-4.5-4.5c-.6-.6-.9-1.35-.9-2.1s.3-1.5.9-2.1l4.5-4.5c.6-.6 1.35-.9 2.1-.9s1.5.3 2.1.9l4.5 4.5c.6.6.9 1.35.9 2.1s-.3 1.5-.9 2.1l-4.5 4.5c-.6.6-1.35.9-2.1.9zm0-12L15.5 8l4.5 4.5L24.5 8 20 3.5zm0 36c-.75 0-1.5-.3-2.1-.9l-4.5-4.5c-.6-.6-.9-1.35-.9-2.1s.3-1.5.9-2.1l4.5-4.5c.6-.6 1.35-.9 2.1-.9s1.5.3 2.1.9l4.5 4.5c.6.6.9 1.35.9 2.1s-.3 1.5-.9 2.1l-4.5 4.5c-.6.6-1.35.9-2.1.9zm0-12L15.5 32l4.5 4.5 4.5-4.5-4.5-4.5zm-12 0c-.75 0-1.5-.3-2.1-.9l-4.5-4.5C.8 21.5.5 20.75.5 20s.3-1.5.9-2.1l4.5-4.5c.6-.6 1.35-.9 2.1-.9s1.5.3 2.1.9l4.5 4.5c.6.6.9 1.35.9 2.1s-.3 1.5-.9 2.1l-4.5 4.5c-.6.6-1.35.9-2.1.9zm0-12L3.5 20 8 24.5l4.5-4.5L8 15.5z" fill="white"/></svg>