<svg width="48" height="48" fill="none" xmlns="http://www.w3.org/2000/svg"><g clip-path="url(#clip0_2001_479)" fill="white"><path d="M20 6.5c-4.192 0-7.658 3.32-7.658 7.5s3.466 7.5 7.658 7.5c3.3 0 6.15-2.058 7.214-4.972a5.286 5.286 0 10.114-4.716C26.368 8.72 23.428 6.5 20 6.5zM15.342 14c0-2.448 2.048-4.5 4.658-4.5 2.61 0 4.658 2.052 4.658 4.5S22.61 18.5 20 18.5c-2.61 0-4.658-2.052-4.658-4.5zm13.372.286a3.286 3.286 0 116.572 0 3.286 3.286 0 01-6.572 0zM16.57 23.414c-.806-.522-1.968-.924-3.192-.588-.327.09-.652.187-.976.29l-1.968.632c-2.466.788-4.376 2.746-5.02 5.226l-.022.08-.84 5.904c-.334 2.36.97 4.802 3.56 5.402 2.394.556 6.252 1.14 11.888 1.14s9.492-.584 11.89-1.14c2.586-.6 3.892-3.04 3.558-5.402l-.84-5.902-.02-.082c-.646-2.48-2.556-4.438-5.022-5.226l-1.968-.632c-.324-.103-.65-.2-.976-.29-1.224-.336-2.386.066-3.192.588-.74.48-1.948 1.058-3.43 1.058-1.48 0-2.69-.578-3.43-1.058zm-2.396 2.302c.128-.034.404-.02.768.214 1.024.664 2.8 1.54 5.058 1.54s4.034-.876 5.06-1.54c.36-.234.638-.248.766-.214.287.08.572.165.856.256l1.97.63c1.5.48 2.616 1.64 3.012 3.048l.812 5.728c.15 1.054-.412 1.86-1.266 2.06-2.154.5-5.782 1.06-11.21 1.06-5.428 0-9.056-.56-11.21-1.06-.854-.2-1.416-1.006-1.268-2.06l.814-5.728a4.52 4.52 0 013.012-3.048l1.97-.63c.284-.09.57-.176.856-.256z"/><path d="M36.366 20.596a2.1 2.1 0 00-1.828.404c-.54.42-1.496 1-2.538 1a1 1 0 000 2c1.716 0 3.112-.914 3.766-1.42a.2.2 0 01.086-.048h.008c.268.07.534.15.798.236l1.37.45a3.253 3.253 0 012.132 2.228l.566 4.098c.112.806-.312 1.41-.92 1.554-.447.11-.989.216-1.626.32a1 1 0 00.32 1.976c.683-.113 1.272-.23 1.768-.35 1.79-.426 2.666-2.14 2.44-3.774l-.582-4.212-.014-.054a5.24 5.24 0 00-3.46-3.686l-1.37-.45c-.303-.1-.608-.19-.916-.272z"/></g><defs><clipPath id="clip0_2001_479"><rect width="48" height="48" fill="white"/></clipPath></defs></svg>